<svg xmlns="http://www.w3.org/2000/svg" xmlns:xlink="http://www.w3.org/1999/xlink" width="500" zoomAndPan="magnify" viewBox="0 0 375 374.999991" height="500" preserveAspectRatio="xMidYMid meet" version="1.0"><defs><clipPath id="id1"><path d="M 84 81 L 305.664062 81 L 305.664062 318 L 84 318 Z M 84 81 " clip-rule="nonzero"/></clipPath><clipPath id="id2"><path d="M 31.996094 31.996094 L 342.757812 31.996094 L 342.757812 342.757812 L 31.996094 342.757812 Z M 31.996094 31.996094 " clip-rule="nonzero"/></clipPath></defs><g clip-path="url(#id1)"><path fill="#000000" d="M 305.546875 218.039062 C 305.085938 216.167969 303.554688 214.785156 301.609375 214.109375 C 292.488281 213.023438 289.644531 207.824219 286.625 200.464844 C 284.019531 193.355469 282.417969 186.34375 281.675781 178.660156 C 281.136719 165.261719 280.105469 160.183594 273.328125 151.949219 C 270.121094 148.039062 265.164062 145.648438 260.347656 144.054688 C 260.414062 144.117188 260.386719 144.105469 260.539062 144.191406 C 258.875 143.476562 256.921875 143.628906 255.367188 142.496094 C 249.433594 138.882812 242.480469 138.304688 235.796875 137.351562 C 232.210938 136.957031 228.679688 136.695312 224.953125 136.703125 C 222.207031 136.914062 219.660156 137.621094 216.84375 137.894531 C 207.828125 138.8125 200.082031 139.136719 195.660156 142.101562 C 195.6875 142.121094 195.710938 142.136719 195.734375 142.15625 C 166.773438 143.179688 172.050781 140.402344 164.253906 141.152344 C 161.820312 141.214844 159.429688 138.957031 156.871094 139.964844 C 156.640625 139.855469 156.609375 139.828125 156.195312 139.648438 C 152.34375 135.6875 143.863281 135.25 139.710938 132.210938 C 134.214844 122.660156 137.785156 125.089844 138.140625 118.042969 C 139.632812 120.730469 146.820312 121.742188 149.839844 121.089844 C 149.878906 121.160156 149.832031 121.089844 149.96875 121.367188 C 148.644531 118.039062 148.628906 114.230469 149.527344 110.65625 C 151.886719 100.742188 157.285156 99.148438 155.046875 95.046875 C 152.410156 91.144531 147.335938 90.386719 143.777344 87.527344 C 141.824219 86.171875 140.75 83.96875 138.726562 82.558594 C 135.378906 80.945312 132.226562 83.238281 132.582031 86.699219 C 128.234375 78.988281 122.363281 81.273438 115.808594 82.535156 C 111.242188 83.148438 102.980469 82.1875 102.136719 87.953125 C 102.175781 87.933594 102.207031 87.914062 102.242188 87.894531 C 102.035156 88.152344 101.769531 88.472656 101.4375 88.820312 C 100 87.875 99.5625 85.957031 97.933594 85.101562 C 94.066406 83.863281 91.203125 91.542969 89.121094 93.699219 C 86.082031 98.214844 82.957031 95.429688 84.535156 103.054688 C 86.648438 112.320312 86.125 109.15625 89.101562 115.785156 C 89.554688 116.726562 89.753906 122.664062 88.980469 123.640625 C 92.765625 124.59375 100.164062 119.839844 102.019531 117.609375 C 102.828125 116.355469 101.054688 111.371094 100.917969 110.5625 C 102.195312 111.699219 103.03125 113.25 104.347656 114.566406 C 101.609375 134.0625 103.191406 141.898438 105.199219 156.929688 C 104.421875 170.667969 103.9375 190.417969 106.167969 196.300781 C 106.171875 196.292969 106.171875 196.289062 106.175781 196.28125 C 107.359375 198.957031 109.253906 201.5 110.582031 204.167969 C 111.960938 207.351562 114.203125 210.089844 115.984375 213.195312 C 120.636719 222 121.671875 221.046875 121.769531 223.441406 C 123.527344 233.304688 124.339844 242.09375 125.171875 251.6875 C 126.328125 259.59375 127.433594 267.347656 129.089844 275.1875 C 130.167969 280.585938 131.351562 285.746094 131.3125 291.273438 C 131.332031 293.234375 131.878906 295.652344 130.050781 297.117188 C 126.675781 301.199219 123.707031 300.152344 122.714844 305.109375 C 122.476562 306.621094 122.453125 310.644531 123.78125 310.871094 C 123.78125 310.878906 123.78125 310.875 123.796875 310.917969 C 126.503906 310.3125 129.566406 310.726562 131.121094 309.429688 C 130.570312 310.582031 130.15625 317.59375 132.414062 317.089844 C 136.695312 316.964844 138.707031 318.242188 140.9375 313.910156 C 140.949219 314.511719 140.714844 315.785156 141.066406 316.527344 C 141.125 317.421875 141.316406 316.914062 142.34375 316.414062 C 155.367188 311.386719 152.679688 304.082031 152.699219 296.207031 C 155.734375 292.191406 154.386719 282.730469 154.957031 278.929688 C 155.085938 273.636719 155.511719 267.945312 155.648438 262.667969 C 156.757812 246.292969 158.488281 230.054688 159.960938 213.6875 C 159.488281 214.140625 159.371094 215.078125 159.269531 215.667969 C 158.652344 214.273438 157.957031 212.777344 157.496094 211.152344 C 165.421875 214.523438 174.277344 205.882812 179.410156 202.503906 C 195.832031 192.285156 199.179688 190.59375 210.964844 186.386719 C 209.824219 206.148438 221.527344 222.285156 231.097656 236.8125 C 233.585938 240.746094 234.3125 244.113281 232.148438 248.101562 C 230.074219 253.40625 227.386719 258.628906 226.851562 263.941406 C 219.851562 267.019531 218.820312 262.882812 215.535156 276.074219 C 216.289062 276.253906 217.382812 276.429688 218.050781 275.664062 C 218.191406 275.65625 218.21875 275.644531 218.722656 275.429688 C 218.6875 275.570312 218.613281 275.761719 218.523438 276.082031 C 220.488281 276.609375 223.789062 277.613281 225.21875 275.792969 C 227.191406 275.828125 231.910156 276.417969 233.242188 275.257812 C 235.917969 273.140625 236.382812 270.34375 237.433594 267.894531 C 238.921875 264.28125 240.035156 261.253906 242.152344 257.863281 C 252.519531 239.914062 248.414062 243.089844 241.058594 228.875 C 243.34375 219.34375 244.457031 214.960938 244.34375 207.21875 C 245.929688 210.984375 246.824219 215.03125 248.632812 218.757812 C 260.164062 241.613281 265.742188 236.257812 266.070312 249.71875 C 266.546875 255.375 267.109375 255.066406 266.421875 259.011719 C 265.554688 263.304688 264.832031 274.398438 263.933594 275.300781 C 261.054688 276.851562 257.324219 277.632812 255.75 280.132812 C 255.128906 282.121094 253.765625 291.394531 257.621094 290.097656 C 259.265625 290.992188 262.570312 291.773438 264.054688 290.011719 C 267.585938 289.480469 273.539062 286.796875 274.949219 284.742188 C 274.960938 284.792969 274.96875 284.847656 274.976562 284.898438 C 276.105469 283.816406 275.730469 281.859375 276.007812 280.324219 C 276.363281 278.375 276.765625 276.507812 277.125 274.667969 C 280.242188 260.089844 282.910156 250.355469 284.582031 246.207031 C 284.953125 244.585938 284.066406 243.253906 283.589844 241.695312 C 281.726562 236.8125 280.964844 231.921875 279.121094 226.953125 C 273.773438 212.09375 278.34375 198.453125 278.144531 188.742188 C 280.152344 200.632812 281.949219 215.425781 294.109375 221.128906 C 300.085938 223.808594 305.628906 221.136719 305.234375 218.84375 C 305.257812 218.960938 305.277344 219.078125 305.285156 219.195312 C 305.3125 219.035156 305.609375 218.703125 305.546875 218.039062 Z M 267.046875 256.875 C 267.046875 256.847656 267.046875 256.820312 267.050781 256.789062 C 267.058594 256.742188 267.0625 256.691406 267.066406 256.640625 L 267.082031 256.6875 C 267.070312 256.75 267.058594 256.8125 267.046875 256.875 Z M 267.046875 256.875 " fill-opacity="1" fill-rule="nonzero"/></g><g clip-path="url(#id2)"><path fill="#000000" d="M 187.375 342.757812 C 145.890625 342.757812 106.828125 326.609375 77.515625 297.234375 C 48.140625 267.921875 31.996094 228.859375 31.996094 187.375 C 31.996094 145.890625 48.140625 106.828125 77.515625 77.515625 C 106.828125 48.140625 145.890625 31.996094 187.375 31.996094 C 228.859375 31.996094 267.921875 48.140625 297.234375 77.515625 C 326.609375 106.890625 342.757812 145.890625 342.757812 187.375 C 342.757812 228.859375 326.609375 267.921875 297.234375 297.234375 C 267.921875 326.609375 228.859375 342.757812 187.375 342.757812 Z M 187.375 41.308594 C 148.375 41.308594 111.671875 56.527344 84.097656 84.097656 C 56.527344 111.671875 41.308594 148.375 41.308594 187.375 C 41.308594 226.375 56.527344 263.078125 84.097656 290.652344 C 111.671875 318.226562 148.375 333.441406 187.375 333.441406 C 226.375 333.441406 263.078125 318.226562 290.652344 290.652344 C 318.226562 263.078125 333.441406 226.375 333.441406 187.375 C 333.441406 148.375 318.226562 111.671875 290.652344 84.097656 C 263.078125 56.527344 226.375 41.308594 187.375 41.308594 Z M 187.375 41.308594 " fill-opacity="1" fill-rule="nonzero"/></g></svg>