<svg xmlns="http://www.w3.org/2000/svg" xmlns:xlink="http://www.w3.org/1999/xlink" width="500" zoomAndPan="magnify" viewBox="0 0 375 374.999991" height="500" preserveAspectRatio="xMidYMid meet" version="1.0"><defs><filter x="0%" y="0%" width="100%" height="100%" id="id1"><feColorMatrix values="0 0 0 0 1 0 0 0 0 1 0 0 0 0 1 0 0 0 1 0" color-interpolation-filters="sRGB"/></filter><clipPath id="id2"><path d="M 2.105469 2.105469 L 372.605469 2.105469 L 372.605469 357 L 2.105469 357 Z M 2.105469 2.105469 " clip-rule="nonzero"/></clipPath><mask id="id3"><g filter="url(#id1)"><rect x="-37.5" width="450" fill="#000000" y="-37.499999" height="449.999989" fill-opacity="0.098"/></g></mask><clipPath id="id4"><path d="M 0.320312 0.199219 L 38.238281 0.199219 L 38.238281 27 L 0.320312 27 Z M 0.320312 0.199219 " clip-rule="nonzero"/></clipPath><clipPath id="id5"><rect x="0" width="39" y="0" height="28"/></clipPath><mask id="id6"><g filter="url(#id1)"><rect x="-37.5" width="450" fill="#000000" y="-37.499999" height="449.999989" fill-opacity="0.098"/></g></mask><clipPath id="id7"><path d="M 0.398438 0.398438 L 94 0.398438 L 94 89 L 0.398438 89 Z M 0.398438 0.398438 " clip-rule="nonzero"/></clipPath><clipPath id="id8"><rect x="0" width="95" y="0" height="90"/></clipPath><mask id="id9"><g filter="url(#id1)"><rect x="-37.5" width="450" fill="#000000" y="-37.499999" height="449.999989" fill-opacity="0.098"/></g></mask><clipPath id="id10"><path d="M 0.0390625 1 L 9.640625 1 L 9.640625 10.640625 L 0.0390625 10.640625 Z M 0.0390625 1 " clip-rule="nonzero"/></clipPath><clipPath id="id11"><rect x="0" width="10" y="0" height="11"/></clipPath><clipPath id="id12"><path d="M 112 93 L 353 93 L 353 372.605469 L 112 372.605469 Z M 112 93 " clip-rule="nonzero"/></clipPath></defs><path fill="#ffd54f" d="M 316.191406 171.238281 C 316.164062 171.644531 316.164062 172.023438 316.113281 172.402344 C 316.058594 172.78125 316.003906 173.160156 315.921875 173.535156 C 315.8125 173.914062 315.707031 174.265625 315.570312 174.617188 C 315.410156 174.96875 315.246094 175.320312 315.058594 175.644531 C 314.839844 175.320312 314.679688 174.996094 314.515625 174.699219 C 314.328125 174.402344 314.136719 174.105469 313.976562 173.835938 C 313.785156 173.5625 313.597656 173.292969 313.433594 173.023438 C 313.246094 172.753906 313.054688 172.507812 312.867188 172.265625 C 312.109375 171.292969 311.351562 170.453125 310.566406 169.695312 C 308.972656 168.210938 307.324219 167.074219 305.617188 166.316406 C 303.914062 165.558594 301.96875 165.097656 299.804688 164.910156 C 298.722656 164.828125 297.585938 164.800781 296.34375 164.910156 C 296.046875 164.9375 295.722656 164.964844 295.421875 164.992188 C 295.097656 165.046875 294.800781 165.097656 294.449219 165.125 C 294.125 165.179688 293.773438 165.234375 293.449219 165.316406 C 293.097656 165.398438 292.746094 165.476562 292.367188 165.53125 C 292.476562 165.179688 292.636719 164.828125 292.773438 164.476562 C 292.960938 164.152344 293.152344 163.828125 293.339844 163.503906 C 293.558594 163.207031 293.800781 162.910156 294.042969 162.609375 C 294.289062 162.339844 294.585938 162.070312 294.855469 161.800781 C 295.992188 160.773438 297.398438 159.960938 298.886719 159.445312 C 301.886719 158.417969 305.402344 158.5 308.484375 159.878906 C 311.59375 161.257812 314.003906 163.800781 315.21875 166.75 C 315.867188 168.128906 316.21875 169.695312 316.191406 171.238281 Z M 316.191406 171.238281 " fill-opacity="1" fill-rule="nonzero"/><g clip-path="url(#id2)"><path fill="#ffd54f" d="M 372.605469 187.355469 C 372.605469 207.476562 369.386719 226.839844 363.464844 244.988281 C 360.921875 252.800781 357.839844 260.375 354.324219 267.703125 C 351.753906 273.058594 348.914062 278.25 345.859375 283.308594 C 342.371094 283.28125 338.882812 283.308594 335.421875 283.363281 C 322.007812 283.550781 308.351562 283.820312 295.421875 280.199219 C 276.898438 275.03125 259.617188 259.886719 263.347656 239.011719 C 266.296875 222.433594 285.796875 232.355469 297.480469 230.464844 C 304.183594 229.382812 309.484375 225.191406 316.570312 226.273438 C 319.84375 226.757812 322.898438 228.328125 326.199219 228.679688 C 330.6875 229.164062 339.421875 226.136719 340.046875 220.835938 C 340.261719 218.863281 339.9375 216.726562 340.964844 215.023438 C 341.722656 213.777344 343.046875 213.019531 344.210938 212.15625 C 350.242188 207.800781 354.324219 197.550781 350.648438 190.4375 C 347.132812 183.652344 337.988281 181.378906 333.445312 175.214844 C 333.148438 174.78125 332.851562 174.347656 332.582031 173.886719 C 327.957031 165.800781 329.660156 157.011719 325.550781 148.738281 C 321.167969 139.894531 314.542969 132.160156 306.457031 126.535156 C 305.78125 126.074219 305.132812 125.640625 304.457031 125.210938 C 303.402344 124.535156 302.320312 123.910156 301.238281 123.289062 C 305.671875 117.476562 311.054688 112.660156 315.761719 109.28125 C 306.917969 105.683594 295.964844 105.523438 285.851562 108.632812 C 285.929688 108.441406 286.039062 108.226562 286.148438 108.035156 C 289.148438 102.519531 292.828125 97.679688 296.234375 94 C 284.902344 91.890625 271.570312 95.273438 261.238281 102.871094 C 256.914062 106.0625 253.152344 109.957031 250.152344 114.257812 C 248.3125 116.878906 245.714844 118.828125 242.6875 119.828125 C 239.46875 120.882812 236.332031 122.125 233.25 123.53125 C 233.464844 123.777344 233.710938 124.019531 233.925781 124.261719 C 234.386719 124.75 234.816406 125.265625 235.25 125.777344 C 235.683594 126.292969 236.117188 126.777344 236.523438 127.292969 C 236.738281 127.535156 236.953125 127.804688 237.144531 128.078125 C 237.359375 128.320312 237.550781 128.589844 237.765625 128.859375 C 237.929688 129.078125 238.089844 129.265625 238.253906 129.484375 C 238.496094 129.808594 238.738281 130.105469 238.957031 130.429688 C 239.144531 130.699219 239.335938 130.96875 239.550781 131.214844 C 239.714844 131.457031 239.902344 131.671875 240.066406 131.917969 C 240.089844 131.96875 240.144531 132.023438 240.171875 132.078125 C 240.335938 132.320312 240.523438 132.566406 240.6875 132.808594 C 240.875 133.078125 241.039062 133.351562 241.226562 133.621094 C 241.226562 133.621094 241.253906 133.648438 241.253906 133.648438 C 241.445312 133.917969 241.605469 134.1875 241.769531 134.429688 C 241.957031 134.703125 242.121094 134.972656 242.308594 135.242188 C 242.472656 135.511719 242.660156 135.785156 242.824219 136.082031 C 242.984375 136.351562 243.175781 136.621094 243.335938 136.890625 C 243.554688 137.269531 243.796875 137.648438 244.011719 138.027344 C 244.121094 138.21875 244.230469 138.378906 244.335938 138.570312 C 244.5 138.839844 244.660156 139.136719 244.824219 139.40625 C 245.148438 139.976562 245.445312 140.542969 245.742188 141.113281 C 245.90625 141.410156 246.042969 141.679688 246.175781 141.976562 C 246.257812 142.113281 246.339844 142.273438 246.394531 142.410156 C 246.472656 142.570312 246.554688 142.734375 246.636719 142.921875 C 246.773438 143.195312 246.878906 143.4375 247.015625 143.707031 C 247.148438 144.003906 247.285156 144.277344 247.421875 144.574219 C 247.554688 144.871094 247.691406 145.140625 247.828125 145.4375 C 247.933594 145.683594 248.042969 145.925781 248.152344 146.167969 C 248.3125 146.519531 248.449219 146.871094 248.609375 147.222656 C 248.71875 147.492188 248.855469 147.792969 248.960938 148.0625 C 249.015625 148.222656 249.097656 148.359375 249.152344 148.519531 C 249.257812 148.792969 249.367188 149.089844 249.476562 149.359375 C 249.585938 149.65625 249.691406 149.925781 249.800781 150.226562 C 249.828125 150.277344 249.828125 150.332031 249.855469 150.359375 C 249.960938 150.65625 250.070312 150.929688 250.179688 151.226562 C 250.289062 151.496094 250.367188 151.792969 250.476562 152.0625 C 250.613281 152.414062 250.71875 152.765625 250.828125 153.117188 C 250.910156 153.390625 250.992188 153.632812 251.097656 153.902344 C 251.964844 156.527344 252.667969 159.203125 253.261719 161.882812 C 253.316406 162.152344 253.371094 162.421875 253.425781 162.691406 C 253.503906 163.070312 253.585938 163.449219 253.640625 163.828125 C 253.695312 164.097656 253.75 164.367188 253.804688 164.640625 C 253.855469 164.9375 253.910156 165.234375 253.964844 165.53125 C 254.019531 165.882812 254.074219 166.261719 254.128906 166.613281 C 254.179688 166.882812 254.207031 167.15625 254.261719 167.425781 C 254.316406 167.859375 254.371094 168.261719 254.425781 168.695312 C 254.453125 168.914062 254.480469 169.101562 254.507812 169.316406 C 254.585938 169.886719 254.640625 170.425781 254.695312 170.996094 C 254.722656 171.265625 254.75 171.535156 254.777344 171.804688 C 254.832031 172.402344 254.882812 172.96875 254.910156 173.5625 C 254.9375 173.78125 254.9375 173.996094 254.964844 174.214844 C 254.992188 174.617188 255.019531 175.023438 255.019531 175.429688 C 255.046875 175.753906 255.046875 176.078125 255.046875 176.402344 C 255.046875 176.726562 255.074219 177.050781 255.074219 177.378906 C 255.074219 177.621094 255.074219 177.863281 255.074219 178.105469 C 255.398438 199.605469 247.367188 221.1875 230.949219 237.605469 L 112.011719 356.652344 C 105.628906 353.8125 99.4375 350.621094 93.488281 347.105469 C 38.804688 314.894531 2.105469 255.398438 2.105469 187.355469 C 2.105469 85.050781 85.050781 2.105469 187.355469 2.105469 C 289.664062 2.105469 372.605469 85.050781 372.605469 187.355469 Z M 372.605469 187.355469 " fill-opacity="1" fill-rule="nonzero"/></g><path fill="#333333" d="M 347.753906 249.71875 C 338.882812 252.640625 329.769531 255.398438 320.4375 255.234375 C 314.515625 255.128906 308.351562 253.75 303.238281 250.640625 C 299.019531 248.070312 296.828125 243.851562 291.609375 243.605469 C 289.066406 243.5 286.660156 244.742188 284.820312 246.421875 C 283.0625 248.042969 282.007812 250.855469 282.007812 253.207031 C 281.957031 254.53125 282.226562 255.75 282.847656 256.914062 C 287.09375 269.976562 309.566406 274.574219 321.035156 274.328125 C 332.390625 274.085938 343.425781 270.976562 354.324219 267.730469 C 357.839844 260.429688 360.894531 252.828125 363.464844 245.011719 C 358.164062 246.367188 352.945312 247.988281 347.753906 249.71875 Z M 255.074219 178.214844 C 255.074219 177.972656 255.074219 177.730469 255.074219 177.484375 C 255.074219 177.160156 255.046875 176.835938 255.046875 176.511719 C 255.046875 176.1875 255.019531 175.863281 255.019531 175.539062 C 254.992188 175.132812 254.964844 174.726562 254.964844 174.320312 C 254.964844 174.105469 254.9375 173.886719 254.910156 173.671875 C 254.882812 173.078125 254.832031 172.507812 254.777344 171.914062 C 254.75 171.644531 254.722656 171.375 254.695312 171.101562 C 254.640625 170.535156 254.585938 169.996094 254.507812 169.425781 C 254.480469 169.210938 254.453125 169.019531 254.425781 168.804688 C 254.371094 168.371094 254.316406 167.964844 254.261719 167.53125 C 254.234375 167.261719 254.179688 166.992188 254.128906 166.722656 C 254.074219 166.371094 254.019531 165.992188 253.964844 165.640625 C 253.910156 165.34375 253.855469 165.046875 253.804688 164.746094 C 253.75 164.476562 253.695312 164.207031 253.640625 163.9375 C 253.558594 163.558594 253.503906 163.179688 253.425781 162.800781 C 253.371094 162.53125 253.316406 162.257812 253.261719 161.988281 C 252.667969 159.3125 251.964844 156.632812 251.097656 154.011719 C 251.015625 153.742188 250.9375 153.496094 250.828125 153.226562 C 250.71875 152.875 250.585938 152.523438 250.476562 152.171875 C 250.367188 151.902344 250.289062 151.605469 250.179688 151.332031 C 250.070312 151.035156 249.960938 150.765625 249.855469 150.46875 C 249.828125 150.414062 249.828125 150.359375 249.800781 150.332031 C 249.691406 150.035156 249.585938 149.765625 249.476562 149.46875 C 249.367188 149.199219 249.257812 148.898438 249.152344 148.628906 C 249.097656 148.46875 249.042969 148.332031 248.960938 148.167969 C 248.855469 147.898438 248.71875 147.601562 248.609375 147.332031 C 248.449219 146.980469 248.3125 146.628906 248.152344 146.277344 C 248.042969 146.035156 247.933594 145.789062 247.828125 145.546875 C 247.691406 145.25 247.554688 144.953125 247.421875 144.679688 C 247.285156 144.382812 247.148438 144.113281 247.015625 143.816406 C 246.878906 143.546875 246.773438 143.300781 246.636719 143.03125 C 246.554688 142.871094 246.472656 142.707031 246.394531 142.519531 C 246.3125 142.382812 246.257812 142.21875 246.175781 142.085938 C 246.042969 141.789062 245.878906 141.515625 245.742188 141.21875 C 245.445312 140.652344 245.148438 140.082031 244.824219 139.515625 C 244.664062 139.246094 244.5 138.949219 244.335938 138.675781 C 244.230469 138.488281 244.121094 138.324219 244.011719 138.136719 C 243.796875 137.757812 243.554688 137.378906 243.335938 137 C 243.175781 136.730469 243.011719 136.460938 242.824219 136.1875 C 242.660156 135.917969 242.472656 135.648438 242.308594 135.351562 C 242.148438 135.082031 241.957031 134.808594 241.769531 134.539062 C 241.605469 134.269531 241.417969 134 241.253906 133.753906 C 241.253906 133.753906 241.253906 133.726562 241.226562 133.726562 C 241.039062 133.457031 240.875 133.1875 240.6875 132.917969 C 240.523438 132.671875 240.335938 132.429688 240.171875 132.1875 C 240.144531 132.132812 240.089844 132.078125 240.066406 132.023438 C 239.902344 131.78125 239.738281 131.566406 239.550781 131.320312 C 239.363281 131.050781 239.171875 130.78125 238.957031 130.539062 C 238.710938 130.210938 238.46875 129.886719 238.253906 129.589844 C 238.089844 129.375 237.929688 129.183594 237.765625 128.96875 C 237.578125 128.699219 237.359375 128.453125 237.144531 128.183594 C 236.925781 127.914062 236.738281 127.671875 236.523438 127.398438 C 236.089844 126.886719 235.683594 126.371094 235.25 125.886719 C 234.816406 125.371094 234.386719 124.886719 233.925781 124.371094 C 233.710938 124.128906 233.464844 123.882812 233.25 123.640625 C 225.246094 127.265625 217.753906 131.945312 211.15625 137.40625 C 211.074219 137.488281 210.964844 137.542969 210.882812 137.621094 C 208.800781 139.355469 206.800781 141.164062 204.933594 143.058594 C 192.523438 155.472656 184.21875 170.453125 180.027344 186.273438 C 177.78125 194.710938 176.726562 203.394531 176.835938 212.046875 C 176.890625 216.589844 177.269531 221.132812 177.972656 225.625 C 180.460938 241.796875 187.113281 257.480469 197.902344 270.894531 L 231.03125 237.765625 C 247.367188 221.296875 255.398438 199.714844 255.074219 178.214844 Z M 285.824219 108.632812 Z M 285.824219 108.632812 " fill-opacity="1" fill-rule="nonzero"/><path fill="#ffd54f" d="M 316.191406 171.238281 C 316.164062 171.644531 316.164062 172.023438 316.113281 172.402344 C 316.058594 172.78125 316.003906 173.160156 315.921875 173.535156 C 315.8125 173.914062 315.707031 174.265625 315.570312 174.617188 C 315.410156 174.96875 315.246094 175.320312 315.058594 175.644531 C 314.839844 175.320312 314.679688 174.996094 314.515625 174.699219 C 314.328125 174.402344 314.136719 174.105469 313.976562 173.835938 C 313.785156 173.5625 313.597656 173.292969 313.433594 173.023438 C 313.246094 172.753906 313.054688 172.507812 312.867188 172.265625 C 312.109375 171.292969 311.351562 170.453125 310.566406 169.695312 C 308.972656 168.210938 307.324219 167.074219 305.617188 166.316406 C 303.914062 165.558594 301.96875 165.097656 299.804688 164.910156 C 298.722656 164.828125 297.585938 164.800781 296.34375 164.910156 C 296.046875 164.9375 295.722656 164.964844 295.421875 164.992188 C 295.097656 165.046875 294.800781 165.097656 294.449219 165.125 C 294.125 165.179688 293.773438 165.234375 293.449219 165.316406 C 293.097656 165.398438 292.746094 165.476562 292.367188 165.53125 C 292.476562 165.179688 292.636719 164.828125 292.773438 164.476562 C 292.960938 164.152344 293.152344 163.828125 293.339844 163.503906 C 293.558594 163.207031 293.800781 162.910156 294.042969 162.609375 C 294.289062 162.339844 294.585938 162.070312 294.855469 161.800781 C 295.992188 160.773438 297.398438 159.960938 298.886719 159.445312 C 301.886719 158.417969 305.402344 158.5 308.484375 159.878906 C 311.59375 161.257812 314.003906 163.800781 315.21875 166.75 C 315.867188 168.128906 316.21875 169.695312 316.191406 171.238281 Z M 316.191406 171.238281 " fill-opacity="1" fill-rule="nonzero"/><path fill="#ffd54f" d="M 316.191406 171.238281 C 316.164062 171.644531 316.164062 172.023438 316.113281 172.402344 C 316.058594 172.78125 316.003906 173.160156 315.921875 173.535156 C 315.8125 173.914062 315.707031 174.265625 315.570312 174.617188 C 315.410156 174.96875 315.246094 175.320312 315.058594 175.644531 C 314.839844 175.320312 314.679688 174.996094 314.515625 174.699219 C 314.328125 174.402344 314.136719 174.105469 313.976562 173.835938 C 313.785156 173.5625 313.597656 173.292969 313.433594 173.023438 C 313.246094 172.753906 313.054688 172.507812 312.867188 172.265625 C 312.109375 171.292969 311.351562 170.453125 310.566406 169.695312 C 308.972656 168.210938 307.324219 167.074219 305.617188 166.316406 C 303.914062 165.558594 301.96875 165.097656 299.804688 164.910156 C 298.722656 164.828125 297.585938 164.800781 296.34375 164.910156 C 296.046875 164.9375 295.722656 164.964844 295.421875 164.992188 C 295.097656 165.046875 294.800781 165.097656 294.449219 165.125 C 294.125 165.179688 293.773438 165.234375 293.449219 165.316406 C 293.097656 165.398438 292.746094 165.476562 292.367188 165.53125 C 292.476562 165.179688 292.636719 164.828125 292.773438 164.476562 C 292.960938 164.152344 293.152344 163.828125 293.339844 163.503906 C 293.558594 163.207031 293.800781 162.910156 294.042969 162.609375 C 294.289062 162.339844 294.585938 162.070312 294.855469 161.800781 C 295.992188 160.773438 297.398438 159.960938 298.886719 159.445312 C 301.886719 158.417969 305.402344 158.5 308.484375 159.878906 C 311.59375 161.257812 314.003906 163.800781 315.21875 166.75 C 315.867188 168.128906 316.21875 169.695312 316.191406 171.238281 Z M 316.191406 171.238281 " fill-opacity="1" fill-rule="nonzero"/><path fill="#ffffff" d="M 230.949219 237.683594 L 112.011719 356.652344 C 105.628906 353.8125 99.4375 350.621094 93.488281 347.105469 C 94.351562 324.035156 99.355469 301.265625 108.335938 279.953125 C 109.308594 277.65625 109.742188 275.328125 109.742188 273.058594 C 109.742188 263.675781 102.167969 255.261719 91.917969 255.261719 C 71.90625 255.261719 54.03125 245.988281 42.402344 231.492188 C 33.667969 220.621094 28.445312 206.828125 28.445312 191.792969 L 28.445312 177.214844 C 28.445312 177.050781 28.445312 176.863281 28.445312 176.699219 C 28.445312 176.648438 28.445312 176.59375 28.445312 176.539062 C 28.445312 176.457031 28.445312 176.402344 28.445312 176.324219 C 28.445312 176.214844 28.445312 176.132812 28.472656 176.023438 C 28.472656 175.945312 28.472656 175.863281 28.472656 175.78125 C 28.472656 175.644531 28.5 175.539062 28.5 175.402344 C 28.5 175.375 28.5 175.375 28.5 175.347656 C 28.5 175.242188 28.527344 175.132812 28.527344 174.996094 C 28.527344 174.917969 28.554688 174.835938 28.554688 174.753906 C 28.554688 174.726562 28.554688 174.726562 28.554688 174.699219 C 28.554688 174.644531 28.554688 174.566406 28.582031 174.511719 C 28.582031 174.429688 28.609375 174.375 28.609375 174.292969 C 28.609375 174.238281 28.636719 174.160156 28.636719 174.078125 C 28.664062 173.941406 28.691406 173.78125 28.71875 173.644531 C 29.285156 170.453125 30.609375 167.507812 32.53125 165.019531 C 32.910156 164.503906 33.34375 164.015625 33.773438 163.558594 C 33.910156 163.394531 34.070312 163.261719 34.207031 163.097656 C 34.398438 162.910156 34.613281 162.691406 34.828125 162.503906 C 34.9375 162.421875 35.046875 162.3125 35.152344 162.234375 C 35.261719 162.152344 35.371094 162.042969 35.476562 161.960938 C 35.585938 161.882812 35.695312 161.773438 35.804688 161.691406 C 35.804688 161.691406 35.828125 161.664062 35.828125 161.664062 C 35.9375 161.582031 36.019531 161.503906 36.128906 161.421875 C 36.261719 161.3125 36.371094 161.230469 36.507812 161.152344 C 36.613281 161.070312 36.722656 160.988281 36.832031 160.933594 C 36.9375 160.851562 37.074219 160.773438 37.183594 160.691406 C 37.289062 160.609375 37.398438 160.554688 37.507812 160.476562 C 37.640625 160.394531 37.777344 160.3125 37.914062 160.230469 C 38.019531 160.175781 38.128906 160.097656 38.238281 160.042969 C 38.507812 159.878906 38.777344 159.746094 39.046875 159.582031 C 39.15625 159.527344 39.292969 159.445312 39.398438 159.394531 C 39.5625 159.3125 39.695312 159.230469 39.859375 159.175781 C 40.128906 159.042969 40.398438 158.933594 40.671875 158.824219 C 40.804688 158.769531 40.914062 158.71875 41.050781 158.664062 C 41.15625 158.609375 41.292969 158.582031 41.402344 158.527344 C 41.535156 158.472656 41.671875 158.417969 41.804688 158.390625 C 41.886719 158.367188 41.96875 158.339844 42.078125 158.3125 C 42.941406 158.015625 43.863281 157.796875 44.78125 157.609375 C 44.863281 157.582031 44.945312 157.582031 45.023438 157.582031 C 45.375 157.527344 45.753906 157.472656 46.105469 157.417969 C 46.242188 157.390625 46.378906 157.390625 46.484375 157.390625 C 46.890625 157.363281 47.269531 157.335938 47.675781 157.3125 C 47.757812 157.3125 47.863281 157.3125 47.945312 157.3125 C 48.082031 157.3125 48.214844 157.3125 48.351562 157.3125 L 93.351562 157.3125 C 97.03125 144.085938 104.0625 131.59375 114.472656 121.207031 C 115.664062 120.015625 116.878906 118.882812 118.125 117.773438 C 150.46875 89.078125 200.011719 90.214844 230.976562 121.207031 C 231.222656 121.449219 231.492188 121.722656 231.734375 121.964844 C 231.953125 122.179688 232.140625 122.398438 232.355469 122.613281 C 232.65625 122.910156 232.953125 123.234375 233.222656 123.53125 C 233.4375 123.777344 233.683594 124.019531 233.898438 124.261719 C 234.359375 124.75 234.792969 125.265625 235.222656 125.777344 C 235.65625 126.292969 236.089844 126.777344 236.496094 127.292969 C 236.710938 127.535156 236.925781 127.804688 237.117188 128.078125 C 237.332031 128.320312 237.523438 128.589844 237.738281 128.859375 C 237.902344 129.078125 238.0625 129.265625 238.226562 129.484375 C 238.46875 129.808594 238.710938 130.105469 238.929688 130.429688 C 239.117188 130.699219 239.308594 130.96875 239.523438 131.214844 C 239.6875 131.457031 239.875 131.671875 240.039062 131.917969 C 240.066406 131.96875 240.117188 132.023438 240.144531 132.078125 C 240.308594 132.320312 240.496094 132.566406 240.660156 132.808594 C 240.847656 133.078125 241.011719 133.351562 241.199219 133.621094 C 241.199219 133.621094 241.226562 133.648438 241.226562 133.648438 C 241.417969 133.917969 241.578125 134.1875 241.742188 134.429688 C 241.929688 134.703125 242.09375 134.972656 242.28125 135.242188 C 242.445312 135.511719 242.632812 135.785156 242.796875 136.082031 C 242.957031 136.351562 243.148438 136.621094 243.308594 136.890625 C 243.527344 137.269531 243.769531 137.648438 243.984375 138.027344 C 244.09375 138.21875 244.203125 138.378906 244.3125 138.570312 C 244.472656 138.839844 244.636719 139.136719 244.796875 139.40625 C 245.121094 139.976562 245.417969 140.542969 245.71875 141.113281 C 245.878906 141.410156 246.015625 141.679688 246.148438 141.976562 C 246.230469 142.113281 246.3125 142.273438 246.367188 142.410156 C 246.445312 142.570312 246.527344 142.734375 246.609375 142.921875 C 246.746094 143.195312 246.851562 143.4375 246.988281 143.707031 C 247.125 144.003906 247.257812 144.277344 247.394531 144.574219 C 247.527344 144.871094 247.664062 145.140625 247.800781 145.4375 C 247.90625 145.683594 248.015625 145.925781 248.125 146.167969 C 248.285156 146.519531 248.421875 146.871094 248.582031 147.222656 C 248.691406 147.492188 248.828125 147.792969 248.933594 148.0625 C 248.988281 148.222656 249.070312 148.359375 249.125 148.519531 C 249.234375 148.792969 249.339844 149.089844 249.449219 149.359375 C 249.558594 149.65625 249.664062 149.925781 249.773438 150.226562 C 249.800781 150.277344 249.800781 150.332031 249.828125 150.359375 C 249.9375 150.65625 250.042969 150.929688 250.152344 151.226562 C 250.261719 151.496094 250.339844 151.792969 250.449219 152.0625 C 250.585938 152.414062 250.691406 152.765625 250.800781 153.117188 C 250.882812 153.390625 250.964844 153.632812 251.070312 153.902344 C 251.9375 156.527344 252.640625 159.203125 253.234375 161.882812 C 253.289062 162.152344 253.34375 162.421875 253.398438 162.691406 C 253.476562 163.070312 253.558594 163.449219 253.613281 163.828125 C 253.667969 164.097656 253.722656 164.367188 253.777344 164.640625 C 253.828125 164.9375 253.882812 165.234375 253.9375 165.53125 C 253.992188 165.882812 254.046875 166.261719 254.101562 166.613281 C 254.15625 166.882812 254.179688 167.15625 254.234375 167.425781 C 254.289062 167.859375 254.34375 168.261719 254.398438 168.695312 C 254.425781 168.914062 254.453125 169.101562 254.480469 169.316406 C 254.558594 169.886719 254.613281 170.425781 254.667969 170.996094 C 254.695312 171.265625 254.722656 171.535156 254.75 171.804688 C 254.804688 172.402344 254.859375 172.96875 254.882812 173.5625 C 254.910156 173.78125 254.910156 173.996094 254.9375 174.214844 C 254.964844 174.617188 254.992188 175.023438 254.992188 175.429688 C 255.019531 175.753906 255.019531 176.078125 255.019531 176.402344 C 255.019531 176.726562 255.046875 177.050781 255.046875 177.378906 C 255.046875 177.621094 255.046875 177.863281 255.046875 178.105469 C 255.398438 199.714844 247.367188 221.296875 230.949219 237.683594 Z M 230.949219 237.683594 " fill-opacity="1" fill-rule="nonzero"/><path fill="#ffffff" d="M 230.949219 237.683594 L 211.9375 256.695312 C 212.128906 256.507812 207.828125 250.339844 207.667969 249.476562 C 207.070312 246.582031 208.261719 242.632812 208.019531 239.578125 C 207.503906 232.707031 205.449219 226 202.554688 219.78125 C 201.203125 216.914062 199.6875 214.128906 198.066406 211.425781 C 195.929688 207.855469 193.550781 204.421875 191.117188 201.039062 C 189.4375 198.714844 187.734375 196.390625 186.003906 194.089844 C 184.03125 191.441406 182.054688 188.789062 179.945312 186.21875 C 176.324219 181.8125 172.402344 177.730469 167.640625 174.617188 C 164.207031 172.347656 160.449219 170.671875 156.527344 169.425781 C 151.414062 167.804688 146.007812 166.9375 140.679688 166.476562 C 131.214844 165.667969 121.695312 166.074219 112.230469 165.371094 C 107.683594 165.019531 102.113281 163.53125 101.195312 159.070312 C 100.707031 156.6875 101.871094 154.226562 103.464844 152.414062 C 105.089844 150.605469 107.144531 149.25 109.011719 147.683594 C 115.691406 142.085938 122.179688 129.886719 119.152344 120.910156 C 118.800781 119.828125 118.421875 118.800781 118.070312 117.828125 C 150.414062 89.132812 199.957031 90.269531 230.925781 121.261719 C 231.167969 121.503906 231.4375 121.773438 231.679688 122.019531 C 231.898438 122.234375 232.085938 122.453125 232.304688 122.667969 C 232.601562 122.964844 232.898438 123.289062 233.167969 123.585938 C 233.386719 123.832031 233.628906 124.074219 233.84375 124.316406 C 234.304688 124.804688 234.738281 125.316406 235.167969 125.832031 C 235.601562 126.34375 236.035156 126.832031 236.441406 127.347656 C 236.65625 127.589844 236.875 127.859375 237.0625 128.128906 C 237.277344 128.375 237.46875 128.644531 237.683594 128.914062 C 237.847656 129.132812 238.007812 129.320312 238.171875 129.535156 C 238.414062 129.859375 238.660156 130.160156 238.875 130.484375 C 239.0625 130.753906 239.253906 131.023438 239.46875 131.265625 C 239.632812 131.511719 239.820312 131.726562 239.984375 131.96875 C 240.011719 132.023438 240.066406 132.078125 240.089844 132.132812 C 240.253906 132.375 240.441406 132.621094 240.605469 132.863281 C 240.792969 133.132812 240.957031 133.402344 241.144531 133.675781 C 241.144531 133.675781 241.171875 133.703125 241.171875 133.703125 C 241.363281 133.972656 241.523438 134.242188 241.6875 134.484375 C 241.875 134.757812 242.039062 135.027344 242.226562 135.296875 C 242.390625 135.566406 242.578125 135.839844 242.742188 136.136719 C 242.902344 136.40625 243.09375 136.675781 243.253906 136.945312 C 243.472656 137.324219 243.714844 137.703125 243.933594 138.082031 C 244.039062 138.273438 244.148438 138.433594 244.257812 138.625 C 244.417969 138.894531 244.582031 139.191406 244.742188 139.460938 C 245.066406 140.03125 245.367188 140.597656 245.664062 141.164062 C 245.824219 141.464844 245.960938 141.734375 246.09375 142.03125 C 246.175781 142.167969 246.257812 142.328125 246.3125 142.464844 C 246.394531 142.625 246.472656 142.789062 246.554688 142.976562 C 246.691406 143.246094 246.796875 143.492188 246.933594 143.761719 C 247.070312 144.058594 247.203125 144.328125 247.339844 144.628906 C 247.476562 144.925781 247.609375 145.195312 247.746094 145.492188 C 247.851562 145.734375 247.960938 145.980469 248.070312 146.222656 C 248.230469 146.574219 248.367188 146.925781 248.53125 147.277344 C 248.636719 147.546875 248.773438 147.84375 248.882812 148.117188 C 248.933594 148.277344 249.015625 148.414062 249.070312 148.574219 C 249.179688 148.847656 249.285156 149.144531 249.394531 149.414062 C 249.503906 149.710938 249.609375 149.980469 249.71875 150.28125 C 249.746094 150.332031 249.746094 150.386719 249.773438 150.414062 C 249.882812 150.710938 249.988281 150.984375 250.097656 151.28125 C 250.207031 151.550781 250.289062 151.847656 250.394531 152.117188 C 250.53125 152.46875 250.640625 152.820312 250.746094 153.171875 C 250.828125 153.445312 250.910156 153.6875 251.015625 153.957031 C 251.882812 156.582031 252.585938 159.257812 253.179688 161.933594 C 253.234375 162.207031 253.289062 162.476562 253.34375 162.746094 C 253.425781 163.125 253.503906 163.503906 253.558594 163.882812 C 253.613281 164.152344 253.667969 164.421875 253.722656 164.695312 C 253.777344 164.992188 253.828125 165.289062 253.882812 165.585938 C 253.9375 165.9375 253.992188 166.316406 254.046875 166.667969 C 254.101562 166.9375 254.128906 167.207031 254.179688 167.480469 C 254.234375 167.910156 254.289062 168.316406 254.34375 168.75 C 254.371094 168.964844 254.398438 169.15625 254.425781 169.371094 C 254.507812 169.941406 254.558594 170.480469 254.613281 171.050781 C 254.640625 171.320312 254.667969 171.589844 254.695312 171.859375 C 254.75 172.457031 254.804688 173.023438 254.832031 173.617188 C 254.859375 173.835938 254.859375 174.050781 254.882812 174.265625 C 254.910156 174.671875 254.9375 175.078125 254.9375 175.484375 C 254.964844 175.808594 254.964844 176.132812 254.964844 176.457031 C 254.964844 176.78125 254.992188 177.105469 254.992188 177.429688 C 254.992188 177.675781 254.992188 177.917969 254.992188 178.160156 C 255.398438 199.714844 247.367188 221.296875 230.949219 237.683594 Z M 230.949219 237.683594 " fill-opacity="1" fill-rule="nonzero"/><path fill="#333333" d="M 66.144531 158.066406 C 66.144531 172.347656 55.03125 183.894531 41.292969 183.894531 C 36.585938 183.894531 32.207031 182.542969 28.445312 180.191406 L 28.445312 177.242188 C 28.445312 166.261719 37.34375 157.335938 48.351562 157.335938 L 66.144531 157.335938 C 66.144531 157.582031 66.144531 157.824219 66.144531 158.066406 Z M 66.144531 158.066406 " fill-opacity="1" fill-rule="nonzero"/><g mask="url(#id3)"><g transform="matrix(1, 0, 0, 1, 28, 157)"><g clip-path="url(#id5)"><g clip-path="url(#id4)"><path fill="#1a1a1a" d="M 38.144531 1.066406 C 38.144531 15.347656 27.03125 26.894531 13.292969 26.894531 C 8.585938 26.894531 4.207031 25.542969 0.445312 23.191406 L 0.445312 20.242188 C 0.445312 19.050781 0.554688 17.863281 0.746094 16.726562 C 2.71875 17.96875 4.882812 18.917969 7.234375 19.539062 C 20.488281 23.109375 34.25 14.832031 37.929688 1.039062 C 37.984375 0.796875 38.066406 0.582031 38.117188 0.335938 C 38.144531 0.582031 38.144531 0.824219 38.144531 1.066406 Z M 38.144531 1.066406 " fill-opacity="1" fill-rule="nonzero"/></g></g></g></g><path fill="#ffd54f" d="M 211.722656 187.953125 C 206.367188 204.097656 194.65625 218.457031 179 225.082031 C 167.667969 229.867188 154.335938 230.355469 143.167969 225.191406 C 131.996094 220.023438 123.480469 208.910156 122.640625 196.632812 C 122.476562 194.089844 122.667969 191.359375 124.210938 189.359375 C 126.238281 186.734375 129.886719 186.113281 133.078125 185.273438 C 148.304688 181.191406 159.09375 167.777344 167.371094 154.363281 C 170.617188 149.089844 173.699219 143.652344 177.863281 139.082031 C 182.027344 134.511719 187.519531 130.808594 193.65625 130.105469 C 222.242188 126.886719 217.132812 171.644531 211.722656 187.953125 Z M 211.722656 187.953125 " fill-opacity="1" fill-rule="nonzero"/><g mask="url(#id6)"><g transform="matrix(1, 0, 0, 1, 122, 140)"><g clip-path="url(#id8)"><g clip-path="url(#id7)"><path fill="#1a1a1a" d="M 89.722656 47.953125 C 84.367188 64.097656 72.65625 78.457031 57 85.082031 C 45.667969 89.867188 32.335938 90.355469 21.167969 85.191406 C 9.996094 80.023438 1.480469 68.910156 0.640625 56.632812 C 0.503906 54.578125 0.613281 52.386719 1.480469 50.574219 C 2.859375 57.578125 6.320312 63.988281 11.1875 68.558594 C 19.164062 76.023438 30.441406 78.671875 41.152344 76.78125 C 55.972656 74.183594 69.546875 63.3125 78.257812 49.304688 C 84.636719 39.027344 94.835938 14.578125 90.507812 0.570312 C 96.699219 14.171875 93.265625 37.214844 89.722656 47.953125 Z M 89.722656 47.953125 " fill-opacity="1" fill-rule="nonzero"/></g></g></g></g><g mask="url(#id9)"><g transform="matrix(1, 0, 0, 1, 203, 130)"><g clip-path="url(#id11)"><g clip-path="url(#id10)"><path fill="#1a1a1a" d="M 9.507812 10.570312 C 7.503906 6.164062 4.476562 2.753906 0.0976562 1.078125 C 5.179688 2.59375 8.101562 6.054688 9.507812 10.570312 Z M 9.507812 10.570312 " fill-opacity="1" fill-rule="nonzero"/></g></g></g></g><path fill="#333333" d="M 118.070312 151.902344 C 118.125 151.226562 118.230469 150.523438 118.449219 149.875 C 118.636719 149.199219 118.933594 148.574219 119.234375 147.925781 C 119.882812 146.683594 120.773438 145.546875 121.855469 144.574219 C 122.910156 143.574219 124.183594 142.789062 125.5625 142.21875 C 126.941406 141.652344 128.429688 141.300781 129.96875 141.246094 C 131.511719 141.191406 133.050781 141.4375 134.511719 141.976562 C 135.972656 142.519531 137.296875 143.328125 138.351562 144.355469 C 139.433594 145.382812 140.273438 146.574219 140.839844 147.871094 C 141.136719 148.519531 141.355469 149.171875 141.515625 149.847656 C 141.679688 150.523438 141.789062 151.199219 141.761719 151.902344 C 140.734375 151.007812 139.757812 150.199219 138.785156 149.496094 C 137.8125 148.792969 136.839844 148.222656 135.890625 147.765625 C 133.972656 146.871094 132.105469 146.519531 130.160156 146.574219 C 129.183594 146.601562 128.183594 146.761719 127.210938 147.007812 C 126.210938 147.25 125.210938 147.574219 124.210938 148.035156 C 123.207031 148.496094 122.207031 149.007812 121.179688 149.65625 C 120.691406 149.980469 120.152344 150.332031 119.664062 150.710938 C 119.125 151.089844 118.664062 151.496094 118.070312 151.902344 Z M 118.070312 151.902344 " fill-opacity="1" fill-rule="nonzero"/><g clip-path="url(#id12)"><path fill="#333333" d="M 297.480469 230.464844 C 304.183594 229.382812 309.484375 225.191406 316.570312 226.273438 C 319.84375 226.757812 322.898438 228.328125 326.199219 228.679688 C 330.6875 229.164062 339.421875 226.136719 340.046875 220.835938 C 340.261719 218.863281 339.9375 216.726562 340.964844 215.023438 C 341.722656 213.777344 343.046875 213.019531 344.210938 212.15625 C 350.242188 207.800781 354.324219 197.550781 350.648438 190.4375 C 347.132812 183.652344 337.988281 181.378906 333.445312 175.214844 C 333.148438 174.78125 332.851562 174.347656 332.582031 173.886719 C 327.957031 165.800781 329.660156 157.011719 325.550781 148.738281 C 321.167969 139.894531 314.542969 132.160156 306.457031 126.535156 C 305.78125 126.074219 305.132812 125.640625 304.457031 125.210938 C 303.402344 124.535156 302.320312 123.910156 301.238281 123.289062 C 305.671875 117.476562 311.054688 112.660156 315.761719 109.28125 C 306.917969 105.683594 295.964844 105.523438 285.851562 108.632812 C 285.929688 108.441406 286.039062 108.226562 286.148438 108.035156 C 289.148438 102.519531 292.828125 97.679688 296.234375 94 C 284.902344 91.890625 271.570312 95.273438 261.238281 102.871094 C 256.914062 106.0625 253.152344 109.957031 250.152344 114.257812 C 248.3125 116.878906 245.714844 118.828125 242.6875 119.828125 C 239.46875 120.882812 236.332031 122.125 233.25 123.53125 C 233.464844 123.777344 233.710938 124.019531 233.925781 124.261719 C 234.386719 124.75 234.816406 125.265625 235.25 125.777344 C 235.683594 126.292969 236.117188 126.777344 236.523438 127.292969 C 236.738281 127.535156 236.953125 127.804688 237.144531 128.078125 C 237.359375 128.320312 237.550781 128.589844 237.765625 128.859375 C 237.929688 129.078125 238.089844 129.265625 238.253906 129.484375 C 238.496094 129.808594 238.738281 130.105469 238.957031 130.429688 C 239.144531 130.699219 239.335938 130.96875 239.550781 131.214844 C 239.714844 131.457031 239.902344 131.671875 240.066406 131.917969 C 240.089844 131.96875 240.144531 132.023438 240.171875 132.078125 C 240.335938 132.320312 240.523438 132.566406 240.6875 132.808594 C 240.875 133.078125 241.039062 133.351562 241.226562 133.621094 C 241.226562 133.621094 241.253906 133.648438 241.253906 133.648438 C 241.445312 133.917969 241.605469 134.1875 241.769531 134.429688 C 241.957031 134.703125 242.121094 134.972656 242.308594 135.242188 C 242.472656 135.511719 242.660156 135.785156 242.824219 136.082031 C 242.984375 136.351562 243.175781 136.621094 243.335938 136.890625 C 243.554688 137.269531 243.796875 137.648438 244.011719 138.027344 C 244.121094 138.21875 244.230469 138.378906 244.335938 138.570312 C 244.5 138.839844 244.660156 139.136719 244.824219 139.40625 C 245.148438 139.976562 245.445312 140.542969 245.742188 141.113281 C 245.90625 141.410156 246.042969 141.679688 246.175781 141.976562 C 246.257812 142.113281 246.339844 142.273438 246.394531 142.410156 C 246.472656 142.570312 246.554688 142.734375 246.636719 142.921875 C 246.773438 143.195312 246.878906 143.4375 247.015625 143.707031 C 247.148438 144.003906 247.285156 144.277344 247.421875 144.574219 C 247.554688 144.871094 247.691406 145.140625 247.828125 145.4375 C 247.933594 145.683594 248.042969 145.925781 248.152344 146.167969 C 248.3125 146.519531 248.449219 146.871094 248.609375 147.222656 C 248.71875 147.492188 248.855469 147.792969 248.960938 148.0625 C 249.015625 148.222656 249.097656 148.359375 249.152344 148.519531 C 249.257812 148.792969 249.367188 149.089844 249.476562 149.359375 C 249.585938 149.65625 249.691406 149.925781 249.800781 150.226562 C 249.828125 150.277344 249.828125 150.332031 249.855469 150.359375 C 249.960938 150.65625 250.070312 150.929688 250.179688 151.226562 C 250.289062 151.496094 250.367188 151.792969 250.476562 152.0625 C 250.613281 152.414062 250.71875 152.765625 250.828125 153.117188 C 250.910156 153.390625 250.992188 153.632812 251.097656 153.902344 C 251.964844 156.527344 252.667969 159.203125 253.261719 161.882812 C 253.316406 162.152344 253.371094 162.421875 253.425781 162.691406 C 253.503906 163.070312 253.585938 163.449219 253.640625 163.828125 C 253.695312 164.097656 253.75 164.367188 253.804688 164.640625 C 253.855469 164.9375 253.910156 165.234375 253.964844 165.53125 C 254.019531 165.882812 254.074219 166.261719 254.128906 166.613281 C 254.179688 166.882812 254.207031 167.15625 254.261719 167.425781 C 254.316406 167.859375 254.371094 168.261719 254.425781 168.695312 C 254.453125 168.914062 254.480469 169.101562 254.507812 169.316406 C 254.585938 169.886719 254.640625 170.425781 254.695312 170.996094 C 254.722656 171.265625 254.75 171.535156 254.777344 171.804688 C 254.832031 172.402344 254.882812 172.96875 254.910156 173.5625 C 254.9375 173.78125 254.9375 173.996094 254.964844 174.214844 C 254.992188 174.617188 255.019531 175.023438 255.019531 175.429688 C 255.046875 175.753906 255.046875 176.078125 255.046875 176.402344 C 255.046875 176.726562 255.074219 177.050781 255.074219 177.378906 C 255.074219 177.621094 255.074219 177.863281 255.074219 178.105469 C 255.398438 199.605469 247.367188 221.1875 230.949219 237.605469 L 112.011719 356.652344 C 135.027344 366.898438 160.527344 372.605469 187.355469 372.605469 C 219.539062 372.605469 249.800781 364.386719 276.167969 349.96875 C 304.863281 334.285156 328.929688 311.21875 345.859375 283.308594 C 342.371094 283.28125 338.882812 283.308594 335.421875 283.363281 C 322.007812 283.550781 308.351562 283.820312 295.421875 280.199219 C 276.898438 275.03125 259.617188 259.886719 263.347656 239.011719 C 266.296875 222.433594 285.769531 232.382812 297.480469 230.464844 Z M 308.511719 159.824219 C 311.621094 161.203125 314.03125 163.746094 315.246094 166.695312 C 315.867188 168.15625 316.191406 169.722656 316.191406 171.265625 C 316.164062 171.671875 316.164062 172.050781 316.113281 172.429688 C 316.058594 172.808594 316.003906 173.183594 315.921875 173.5625 C 315.8125 173.941406 315.707031 174.292969 315.570312 174.644531 C 315.410156 174.996094 315.246094 175.347656 315.058594 175.671875 C 314.839844 175.347656 314.679688 175.023438 314.515625 174.726562 C 314.328125 174.429688 314.136719 174.132812 313.976562 173.863281 C 313.785156 173.589844 313.597656 173.320312 313.433594 173.050781 C 313.246094 172.78125 313.054688 172.535156 312.867188 172.292969 C 312.109375 171.320312 311.351562 170.480469 310.566406 169.722656 C 308.972656 168.238281 307.324219 167.101562 305.617188 166.34375 C 303.914062 165.585938 301.96875 165.125 299.804688 164.9375 C 298.722656 164.855469 297.585938 164.828125 296.34375 164.9375 C 296.046875 164.964844 295.722656 164.992188 295.421875 165.019531 C 295.097656 165.070312 294.800781 165.125 294.449219 165.152344 C 294.125 165.207031 293.773438 165.261719 293.449219 165.34375 C 293.097656 165.421875 292.746094 165.503906 292.367188 165.558594 C 292.476562 165.207031 292.636719 164.855469 292.773438 164.503906 C 292.960938 164.179688 293.152344 163.855469 293.339844 163.53125 C 293.558594 163.234375 293.800781 162.9375 294.042969 162.636719 C 294.289062 162.367188 294.585938 162.097656 294.855469 161.828125 C 295.992188 160.800781 297.398438 159.988281 298.886719 159.472656 C 301.914062 158.339844 305.429688 158.417969 308.511719 159.824219 Z M 308.511719 159.824219 " fill-opacity="1" fill-rule="nonzero"/></g></svg>